<?xml version="1.0" encoding="UTF-8" standalone="no"?>
<!DOCTYPE svg PUBLIC "-//W3C//DTD SVG 1.1//EN" "http://www.w3.org/Graphics/SVG/1.1/DTD/svg11.dtd">
<svg width="100%" height="100%" viewBox="0 0 50 50" version="1.1" xmlns="http://www.w3.org/2000/svg" xmlns:xlink="http://www.w3.org/1999/xlink" xml:space="preserve" xmlns:serif="http://www.serif.com/" style="fill-rule:evenodd;clip-rule:evenodd;stroke-linecap:round;stroke-linejoin:round;stroke-miterlimit:1.5;">
    <g transform="matrix(1.03969,0,0,1.03969,-2.3298,-1.14083)">
        <circle cx="26.287" cy="25.143" r="22.411" style="fill:none;stroke:rgb(187,186,193);stroke-width:1.92px;"/>
    </g>
    <g id="calendar-alt-test" transform="matrix(0.0465907,0,0,0.0465907,25,25)">
        <g transform="matrix(1,0,0,1,-224,-256)">
            <g transform="matrix(0.969414,0,0,0.969414,7.82989,7.82989)">
                <path d="M148,288L108,288C101.4,288 96,282.6 96,276L96,236C96,229.4 101.4,224 108,224L148,224C154.6,224 160,229.4 160,236L160,276C160,282.6 154.6,288 148,288ZM256,276L256,236C256,229.4 250.6,224 244,224L204,224C197.4,224 192,229.4 192,236L192,276C192,282.6 197.4,288 204,288L244,288C250.6,288 256,282.6 256,276ZM352,276L352,236C352,229.4 346.6,224 340,224L300,224C293.4,224 288,229.4 288,236L288,276C288,282.6 293.4,288 300,288L340,288C346.6,288 352,282.6 352,276ZM256,372L256,332C256,325.4 250.6,320 244,320L204,320C197.4,320 192,325.4 192,332L192,372C192,378.6 197.4,384 204,384L244,384C250.6,384 256,378.6 256,372ZM160,372L160,332C160,325.4 154.6,320 148,320L108,320C101.4,320 96,325.4 96,332L96,372C96,378.6 101.4,384 108,384L148,384C154.6,384 160,378.6 160,372ZM352,372L352,332C352,325.4 346.6,320 340,320L300,320C293.4,320 288,325.4 288,332L288,372C288,378.6 293.4,384 300,384L340,384C346.6,384 352,378.6 352,372ZM448,112L448,464C448,490.5 426.5,512 400,512L48,512C21.5,512 0,490.5 0,464L0,112C0,85.5 21.5,64 48,64L96,64L96,12C96,5.4 101.4,0 108,0L148,0C154.6,0 160,5.4 160,12L160,64L288,64L288,12C288,5.4 293.4,0 300,0L340,0C346.6,0 352,5.4 352,12L352,64L400,64C426.5,64 448,85.5 448,112ZM400,458L400,160L48,160L48,458C48,461.3 50.7,464 54,464L394,464C397.3,464 400,461.3 400,458Z" style="fill:rgb(187,186,192);fill-rule:nonzero;"/>
            </g>
        </g>
    </g>
</svg>
