<?xml version="1.0" encoding="UTF-8" standalone="no"?>
<!DOCTYPE svg PUBLIC "-//W3C//DTD SVG 1.1//EN" "http://www.w3.org/Graphics/SVG/1.1/DTD/svg11.dtd">
<svg width="100%" height="100%" viewBox="0 0 64 64" version="1.1" xmlns="http://www.w3.org/2000/svg" xmlns:xlink="http://www.w3.org/1999/xlink" xml:space="preserve" xmlns:serif="http://www.serif.com/" style="fill-rule:evenodd;clip-rule:evenodd;stroke-linejoin:round;stroke-miterlimit:2;">
    <g id="Align-Left-Icon" serif:id="Align Left Icon" transform="matrix(1,0,0,1,-161.264,-3579.22)">
        <path d="M205.5,3600L184.5,3600C183.672,3600 183,3599.33 183,3598.5C183,3597.67 183.672,3597 184.5,3597L205.5,3597C206.328,3597 207,3597.67 207,3598.5C207,3599.33 206.328,3600 205.5,3600ZM184.5,3603L202.5,3603C203.328,3603 204,3603.67 204,3604.5C204,3605.33 203.328,3606 202.5,3606L184.5,3606C183.672,3606 183,3605.33 183,3604.5C183,3603.67 183.672,3603 184.5,3603ZM184.5,3609L205.5,3609C206.328,3609 207,3609.67 207,3610.5C207,3611.33 206.328,3612 205.5,3612L184.5,3612C183.672,3612 183,3611.33 183,3610.5C183,3609.67 183.672,3609 184.5,3609ZM184.5,3615L199.5,3615C200.328,3615 201,3615.67 201,3616.5C201,3617.33 200.328,3618 199.5,3618L184.5,3618C183.672,3618 183,3617.33 183,3616.5C183,3615.67 183.672,3615 184.5,3615Z" style="fill:white;"/>
    </g>
</svg>
