<?xml version="1.0" encoding="UTF-8" standalone="no"?>
<!DOCTYPE svg PUBLIC "-//W3C//DTD SVG 1.1//EN" "http://www.w3.org/Graphics/SVG/1.1/DTD/svg11.dtd">
<svg width="100%" height="100%" viewBox="0 0 50 50" version="1.1" xmlns="http://www.w3.org/2000/svg" xmlns:xlink="http://www.w3.org/1999/xlink" xml:space="preserve" xmlns:serif="http://www.serif.com/" style="fill-rule:evenodd;clip-rule:evenodd;stroke-linecap:round;stroke-linejoin:round;stroke-miterlimit:1.5;">
    <g transform="matrix(1.03969,0,0,1.03969,-2.3298,-1.14083)">
        <circle cx="26.287" cy="25.143" r="22.411" style="fill:none;stroke:rgb(187,186,193);stroke-width:1.92px;"/>
    </g>
    <g id="Pin-Icon" serif:id="Pin Icon" transform="matrix(1.03768,0,0,1.07585,-969.613,-2909.91)">
        <path d="M966.498,2727.42C964.577,2733.88 958.5,2740 958.5,2740C958.5,2740 952.444,2733.89 950.513,2727.45C950.187,2726.54 950,2725.52 950,2724.5C950,2719.78 953.806,2716 958.5,2716C963.194,2716 967,2719.78 967,2724.5C967,2725.51 966.817,2726.52 966.498,2727.42ZM958.5,2721C956.567,2721 955,2722.57 955,2724.5C955,2726.43 956.567,2728 958.5,2728C960.433,2728 962,2726.43 962,2724.5C962,2722.57 960.433,2721 958.5,2721Z" style="fill:rgb(187,186,193);fill-opacity:0;"/>
    </g>
    <g id="User-Icon" serif:id="User Icon" transform="matrix(0.573301,0,0,0.573301,-76.9204,-1667.39)">
        <path d="M203.004,2959.62C201.186,2959.92 199.049,2960 195,2960C190.951,2960 188.814,2959.92 186.996,2959.62C184.451,2959.19 183,2958.28 183,2956.76C183,2954.75 185.592,2951.94 189.196,2950.31C190.652,2952.52 192.709,2954 195,2954C197.291,2954 199.348,2952.52 200.804,2950.31C204.408,2951.94 207,2954.75 207,2956.76C207,2958.28 205.549,2959.19 203.004,2959.62ZM195,2952C191.678,2952 189,2947.59 189,2943.06C189,2938.84 191.505,2936 195,2936C198.495,2936 201,2938.84 201,2943.06C201,2947.59 198.322,2952 195,2952Z" style="fill:rgb(187,186,193);"/>
    </g>
    <g id="User-Icon1" serif:id="User Icon" transform="matrix(0.573301,0,0,0.573301,-96.5519,-1667.39)">
        <path d="M203.004,2959.62C201.186,2959.92 199.049,2960 195,2960C190.951,2960 188.814,2959.92 186.996,2959.62C184.451,2959.19 183,2958.28 183,2956.76C183,2954.75 185.592,2951.94 189.196,2950.31C190.652,2952.52 192.709,2954 195,2954C197.291,2954 199.348,2952.52 200.804,2950.31C204.408,2951.94 207,2954.75 207,2956.76C207,2958.28 205.549,2959.19 203.004,2959.62ZM195,2952C191.678,2952 189,2947.59 189,2943.06C189,2938.84 191.505,2936 195,2936C198.495,2936 201,2938.84 201,2943.06C201,2947.59 198.322,2952 195,2952Z" style="fill:rgb(187,186,193);"/>
    </g>
    <g id="User-Icon2" serif:id="User Icon" transform="matrix(0.764395,0,0,0.764395,-124.057,-2228.44)">
        <path d="M203.004,2959.62C201.186,2959.92 199.049,2960 195,2960C190.951,2960 188.814,2959.92 186.996,2959.62C184.451,2959.19 183,2958.28 183,2956.76C183,2954.75 185.592,2951.94 189.196,2950.31C190.652,2952.52 192.709,2954 195,2954C197.291,2954 199.348,2952.52 200.804,2950.31C204.408,2951.94 207,2954.75 207,2956.76C207,2958.28 205.549,2959.19 203.004,2959.62ZM195,2952C191.678,2952 189,2947.59 189,2943.06C189,2938.84 191.505,2936 195,2936C198.495,2936 201,2938.84 201,2943.06C201,2947.59 198.322,2952 195,2952Z" style="fill:rgb(187,186,193);"/>
    </g>
</svg>
