<?xml version="1.0" encoding="UTF-8" standalone="no"?>
<!DOCTYPE svg PUBLIC "-//W3C//DTD SVG 1.1//EN" "http://www.w3.org/Graphics/SVG/1.1/DTD/svg11.dtd">
<svg width="100%" height="100%" viewBox="0 0 50 50" version="1.1" xmlns="http://www.w3.org/2000/svg" xmlns:xlink="http://www.w3.org/1999/xlink" xml:space="preserve" xmlns:serif="http://www.serif.com/" style="fill-rule:evenodd;clip-rule:evenodd;stroke-linecap:round;stroke-linejoin:round;stroke-miterlimit:1.5;">
    <g transform="matrix(1.03969,0,0,1.03969,-2.3298,-1.14083)">
        <circle cx="26.287" cy="25.143" r="22.411" style="fill:none;stroke:rgb(187,186,193);stroke-width:1.92px;"/>
    </g>
    <g id="microphone-test" transform="matrix(0.05302,0,0,0.05302,25,25)">
        <g transform="matrix(1,0,0,1,-176,-256)">
            <g transform="matrix(0.958962,0,0,0.958962,7.22273,7.22273)">
                <path d="M176,352C229.02,352 272,309.02 272,256L272,96C272,42.98 229.02,0 176,0C122.98,0 80,42.98 80,96L80,256C80,309.02 122.98,352 176,352ZM336,192L320,192C311.16,192 304,199.16 304,208L304,256C304,330.8 239.51,390.82 163.21,383.38C96.71,376.89 48,317.11 48,250.3L48,208C48,199.16 40.84,192 32,192L16,192C7.16,192 0,199.16 0,208L0,248.16C0,337.8 63.97,417.71 152,429.85L152,464L96,464C87.16,464 80,471.16 80,480L80,496C80,504.84 87.16,512 96,512L256,512C264.84,512 272,504.84 272,496L272,480C272,471.16 264.84,464 256,464L200,464L200,430.23C285.71,418.47 352,344.9 352,256L352,208C352,199.16 344.84,192 336,192Z" style="fill:rgb(187,186,192);fill-rule:nonzero;"/>
            </g>
        </g>
    </g>
</svg>
